<svg width="24" height="24" viewBox="0 0 24 24" fill="none" xmlns="http://www.w3.org/2000/svg">
<path d="M5.99991 19.0002L14.9999 4.00023C15.7203 3.44361 16.6091 3.14941 17.5193 3.16621C18.4296 3.18301 19.3068 3.50982 20.0062 4.09264C20.7056 4.67547 21.1853 5.47943 21.3659 6.37172C21.5466 7.26402 21.4175 8.19124 20.9999 9.00023L8.99991 21.0002C8.46948 21.6633 7.69738 22.0884 6.85347 22.1822C6.00955 22.276 5.16295 22.0307 4.49991 21.5002C3.83687 20.9698 3.4117 20.1977 3.31793 19.3538C3.22416 18.5099 3.46948 17.6633 3.99991 17.0002L13.9999 4.00023" stroke="#B69C66" stroke-width="1.8" stroke-linecap="round" stroke-linejoin="round"/>
<path d="M15 4L19 8M5 17L9 21" stroke="#B69C66" stroke-width="1.8" stroke-linecap="round" stroke-linejoin="round"/>
<path d="M6.5 19.5C7.05228 19.5 7.5 19.0523 7.5 18.5C7.5 17.9477 7.05228 17.5 6.5 17.5C5.94772 17.5 5.5 17.9477 5.5 18.5C5.5 19.0523 5.94772 19.5 6.5 19.5Z" stroke="#B69C66" stroke-width="1.8" stroke-linecap="round" stroke-linejoin="round"/>
</svg>
